# xmcd CD database file
#
# Track frame offsets:
#	150
#	19972
#	39165
#	60250
#	80210
#
# Disc length: 1332 seconds
#
# Revision: 3
# Processed by: cddbd v1.5.1PL0 Copyright (c) Steve Scherf et al.
# Submitted via: CDex 1.51
#
DISCID=34053205
DTITLE=B'z - 愛のバクダン
DYEAR=2005
DGENRE=Rock
TTITLE0=愛のバクダン
TTITLE1=Fever
TTITLE2=甘く優しい微熱
TTITLE3=愛のバクダン (TV STYLE)
TTITLE4=愛のバクダン (GUITAR SOLO LESS)
EXTD=YEAR: 2005
EXTT0=
EXTT1=
EXTT2=
EXTT3=
EXTT4=
PLAYORDER=
